<?xml version="1.0" encoding="utf-8"?>
<!-- Generator: Adobe Illustrator 26.0.0, SVG Export Plug-In . SVG Version: 6.00 Build 0)  -->
<svg version="1.1" id="Layer_1" xmlns="http://www.w3.org/2000/svg" xmlns:xlink="http://www.w3.org/1999/xlink" x="0px" y="0px"
	 viewBox="0 0 827.6 276.7" style="enable-background:new 0 0 827.6 276.7;" xml:space="preserve">
<style type="text/css">
	.st0{fill:#7C7C7C;}
	.st1{fill:url(#SVGID_1_);}
	.st2{fill:url(#SVGID_00000164493487626570953240000007619147735728489879_);}
	.st3{fill:url(#SVGID_00000160911271536099223930000006704599092811472535_);}
	.st4{fill:url(#SVGID_00000183953110052165143410000003355493651655964555_);}
	.st5{fill:url(#SVGID_00000008139917566885719320000013273033062366911394_);}
	.st6{fill:url(#SVGID_00000166643377843757253020000006341632448543907760_);}
	.st7{fill:url(#SVGID_00000082344470748208289490000014719225170276138939_);}
	.st8{fill:url(#SVGID_00000068678487121461545150000007751329339603403432_);}
	.st9{fill:url(#SVGID_00000108284961067773531120000007381953228028815515_);}
	.st10{fill:url(#SVGID_00000013888150883935465710000011992731417196780206_);}
	.st11{fill:url(#SVGID_00000160908050616577614570000011016342544957675164_);}
	.st12{fill:url(#SVGID_00000181788401106231154550000015860509804794525349_);}
	.st13{fill:url(#SVGID_00000047019811084264334670000008115044904131987902_);}
	.st14{fill:url(#SVGID_00000111187145868216818990000000483727021438290077_);}
	.st15{fill:url(#SVGID_00000109741626716133308710000012944928350224264577_);}
	.st16{fill:url(#SVGID_00000050649624399179572200000007501870441873480344_);}
	.st17{fill:url(#SVGID_00000052824307069350686690000012768547016328967583_);}
	.st18{fill:url(#SVGID_00000064346677865925397490000015688506706517843864_);}
	.st19{fill:url(#SVGID_00000071528548885287913180000016186236525696966571_);}
	.st20{fill:url(#SVGID_00000038384375492964861310000009501771561157874363_);}
</style>
<g>
	<path class="st0" d="M353.8,64.1c-2.7-1.5-4.8-3.5-6.3-6.1c-1.5-2.6-2.3-5.5-2.3-8.7s0.8-6.2,2.3-8.7c1.5-2.6,3.6-4.6,6.3-6.1
		c2.7-1.5,5.7-2.2,9.1-2.2c2.6,0,5,0.4,7.1,1.3c2.2,0.9,4,2.2,5.5,3.9l-3.1,3c-2.5-2.6-5.6-4-9.4-4c-2.5,0-4.7,0.6-6.7,1.7
		c-2,1.1-3.6,2.6-4.7,4.6c-1.1,2-1.7,4.1-1.7,6.5c0,2.4,0.6,4.6,1.7,6.5c1.1,2,2.7,3.5,4.7,4.6c2,1.1,4.2,1.7,6.7,1.7
		c3.7,0,6.8-1.3,9.4-4l3.1,3c-1.5,1.7-3.4,3-5.5,3.9c-2.2,0.9-4.6,1.3-7.2,1.3C359.5,66.3,356.5,65.6,353.8,64.1z M407.5,61.8v4.1
		h-24.2V32.6h23.5v4.1h-18.8V47h16.7v4h-16.7v10.8H407.5z M447.1,65.9l0-24.3L435,61.9h-2.2l-12.1-20.1v24.1h-4.6V32.6h3.9L434,56
		l13.7-23.4h3.9l0,33.3H447.1z M487.4,61.8v4.1h-24.2V32.6h23.5v4.1H468V47h16.7v4H468v10.8H487.4z M496.1,32.6h4.7v25.7l19.7-25.7
		h4.4v33.3h-4.7V40.2l-19.8,25.7h-4.4V32.6z M504.4,28.5c-1.4-1.1-2.1-2.7-2.2-4.8h3.4c0,1.2,0.5,2.2,1.3,2.9c0.8,0.7,2,1,3.5,1
		c1.4,0,2.6-0.3,3.5-1c0.9-0.7,1.3-1.6,1.4-2.9h3.3c0,2.1-0.8,3.7-2.2,4.8c-1.4,1.1-3.4,1.7-6,1.7C507.8,30.2,505.8,29.7,504.4,28.5
		z M565.1,32.6v33.3h-4.8V51.1h-19.1v14.9h-4.8V32.6h4.8v14.3h19.1V32.6H565.1z M598.4,57.6h-17.7l-3.7,8.3h-4.9l15.1-33.3h4.7
		l15.1,33.3h-5L598.4,57.6z M596.7,53.8l-7.2-16.3l-7.2,16.3H596.7z M636.9,32.6v33.3h-4.7v-9.7H623c-0.6,0-1,0-1.3,0l-6.7,9.8h-5
		l7.4-10.6c-2.4-0.8-4.2-2.1-5.5-4c-1.3-1.9-1.9-4.1-1.9-6.8c0-3.8,1.2-6.7,3.6-8.8c2.4-2.1,5.7-3.2,9.8-3.2H636.9z M617,50.2
		c1.4,1.3,3.6,2,6.4,2h8.8V36.7h-8.5c-2.9,0-5,0.7-6.6,2c-1.5,1.3-2.3,3.3-2.3,5.8C614.8,47,615.5,48.9,617,50.2z M389.7,89.7v33.3
		h-41.8V89.7h4.7v29.2h13.9V89.7h4.7v29.2H385V89.7H389.7z M412.9,108.4h-7v14.7h-4.7V89.7h4.7v14.5h7l10.5-14.5h5.1l-11.9,16.1
		l12.5,17.2h-5.4L412.9,108.4z M441,121.2c-2.7-1.5-4.8-3.5-6.4-6.1c-1.5-2.6-2.3-5.5-2.3-8.7s0.8-6.1,2.3-8.7
		c1.5-2.6,3.7-4.6,6.4-6.1c2.7-1.5,5.7-2.2,9.1-2.2c3.3,0,6.4,0.7,9.1,2.2c2.7,1.5,4.8,3.5,6.3,6.1c1.5,2.6,2.3,5.5,2.3,8.7
		c0,3.2-0.8,6.2-2.3,8.7c-1.5,2.6-3.6,4.6-6.3,6.1c-2.7,1.5-5.7,2.2-9.1,2.2C446.8,123.5,443.7,122.7,441,121.2z M456.7,117.5
		c2-1.1,3.5-2.6,4.6-4.6c1.1-2,1.7-4.1,1.7-6.5c0-2.4-0.6-4.6-1.7-6.5c-1.1-2-2.7-3.5-4.6-4.6c-2-1.1-4.2-1.7-6.6-1.7
		c-2.4,0-4.7,0.6-6.6,1.7c-2,1.1-3.5,2.6-4.7,4.6c-1.1,2-1.7,4.1-1.7,6.5c0,2.4,0.6,4.6,1.7,6.5c1.1,2,2.7,3.5,4.7,4.6
		c2,1.1,4.2,1.7,6.6,1.7C452.6,119.2,454.8,118.7,456.7,117.5z M503,89.7v33.3h-4.7V93.9h-14.8l-0.3,9.8c-0.2,4.6-0.5,8.3-1.1,11.2
		c-0.6,2.9-1.5,5-2.8,6.5c-1.3,1.4-3,2.2-5.1,2.2c-1,0-2-0.1-3-0.4l0.3-4.2c0.5,0.1,1,0.2,1.5,0.2c1.4,0,2.5-0.5,3.3-1.6
		c0.8-1.1,1.4-2.7,1.9-4.9c0.4-2.2,0.7-5.1,0.8-8.7l0.5-14.1H503z M536.2,114.7h-17.7l-3.7,8.3h-4.9L525,89.7h4.7l15.1,33.3h-5
		L536.2,114.7z M534.6,110.9l-7.2-16.3l-7.2,16.3H534.6z M371.1,150c2.5,2.1,3.7,4.9,3.7,8.5c0,3.6-1.2,6.5-3.7,8.5
		c-2.5,2.1-5.9,3.1-10.2,3.1h-8.2v10.1h-4.8v-33.3h13C365.2,146.9,368.6,147.9,371.1,150z M367.7,164.1c1.6-1.3,2.4-3.1,2.4-5.5
		c0-2.4-0.8-4.3-2.4-5.5c-1.6-1.3-3.9-1.9-6.9-1.9h-8.1v15h8.1C363.8,166,366.1,165.3,367.7,164.1z M389,178.4
		c-2.7-1.5-4.8-3.5-6.4-6.1c-1.5-2.6-2.3-5.5-2.3-8.7s0.8-6.1,2.3-8.7c1.5-2.6,3.7-4.6,6.4-6.1c2.7-1.5,5.7-2.2,9.1-2.2
		c3.3,0,6.4,0.7,9.1,2.2c2.7,1.5,4.8,3.5,6.3,6.1c1.5,2.6,2.3,5.5,2.3,8.7c0,3.2-0.8,6.2-2.3,8.7c-1.5,2.6-3.6,4.6-6.3,6.1
		c-2.7,1.5-5.7,2.2-9.1,2.2C394.7,180.6,391.7,179.9,389,178.4z M404.7,174.7c2-1.1,3.5-2.6,4.6-4.6c1.1-2,1.7-4.1,1.7-6.5
		c0-2.4-0.6-4.6-1.7-6.5c-1.1-2-2.7-3.5-4.6-4.6c-2-1.1-4.2-1.7-6.6-1.7c-2.4,0-4.7,0.6-6.6,1.7c-2,1.1-3.5,2.6-4.7,4.6
		c-1.1,2-1.7,4.1-1.7,6.5c0,2.4,0.6,4.6,1.7,6.5c1.1,2,2.7,3.5,4.7,4.6c2,1.1,4.2,1.7,6.6,1.7C400.5,176.4,402.7,175.8,404.7,174.7z
		 M424.7,146.9h25.1v4h-20.4v9.5h10.4c4,0,7,0.8,9.1,2.5c2.1,1.7,3.1,4,3.1,7.1c0,3.3-1.1,5.8-3.4,7.5c-2.2,1.7-5.4,2.6-9.6,2.6
		h-14.3V146.9z M438.8,176.5c2.7,0,4.8-0.5,6.2-1.6c1.4-1,2.1-2.6,2.1-4.6c0-4-2.8-6-8.4-6h-9.4v12.2H438.8z M466.6,178.4
		c-2.7-1.5-4.8-3.5-6.4-6.1c-1.5-2.6-2.3-5.5-2.3-8.7s0.8-6.1,2.3-8.7c1.5-2.6,3.7-4.6,6.4-6.1c2.7-1.5,5.7-2.2,9.1-2.2
		c3.3,0,6.4,0.7,9.1,2.2c2.7,1.5,4.8,3.5,6.3,6.1c1.5,2.6,2.3,5.5,2.3,8.7c0,3.2-0.8,6.2-2.3,8.7c-1.5,2.6-3.6,4.6-6.3,6.1
		c-2.7,1.5-5.7,2.2-9.1,2.2C472.3,180.6,469.3,179.9,466.6,178.4z M482.3,174.7c2-1.1,3.5-2.6,4.6-4.6c1.1-2,1.7-4.1,1.7-6.5
		c0-2.4-0.6-4.6-1.7-6.5c-1.1-2-2.7-3.5-4.6-4.6c-2-1.1-4.2-1.7-6.6-1.7c-2.4,0-4.7,0.6-6.6,1.7c-2,1.1-3.5,2.6-4.7,4.6
		c-1.1,2-1.7,4.1-1.7,6.5c0,2.4,0.6,4.6,1.7,6.5c1.1,2,2.7,3.5,4.7,4.6c2,1.1,4.2,1.7,6.6,1.7C478.1,176.4,480.3,175.8,482.3,174.7z
		 M524.7,151h-11.4v29.2h-4.7V151h-11.4v-4.1h27.5V151z M537.1,178.4c-2.7-1.5-4.8-3.5-6.4-6.1c-1.5-2.6-2.3-5.5-2.3-8.7
		s0.8-6.1,2.3-8.7c1.5-2.6,3.7-4.6,6.4-6.1c2.7-1.5,5.7-2.2,9.1-2.2c3.3,0,6.4,0.7,9.1,2.2c2.7,1.5,4.8,3.5,6.3,6.1
		c1.5,2.6,2.3,5.5,2.3,8.7c0,3.2-0.8,6.2-2.3,8.7c-1.5,2.6-3.6,4.6-6.3,6.1c-2.7,1.5-5.7,2.2-9.1,2.2
		C542.9,180.6,539.8,179.9,537.1,178.4z M552.8,174.7c2-1.1,3.5-2.6,4.6-4.6c1.1-2,1.7-4.1,1.7-6.5c0-2.4-0.6-4.6-1.7-6.5
		c-1.1-2-2.7-3.5-4.6-4.6c-2-1.1-4.2-1.7-6.6-1.7c-2.4,0-4.7,0.6-6.6,1.7c-2,1.1-3.5,2.6-4.7,4.6c-1.1,2-1.7,4.1-1.7,6.5
		c0,2.4,0.6,4.6,1.7,6.5c1.1,2,2.7,3.5,4.7,4.6c2,1.1,4.2,1.7,6.6,1.7C548.7,176.4,550.9,175.8,552.8,174.7z M595.3,151h-11.4v29.2
		h-4.7V151h-11.4v-4.1h27.5V151z M626.5,176.1v4.1h-24.2v-33.3h23.5v4.1H607v10.2h16.7v4H607v10.8H626.5z M636.6,146.9l8.7,12.2
		l8.7-12.2h5.6l-11.3,16l12.2,17.3h-5.6l-9.6-13.3l-9.5,13.3h-5.5l12.1-17.1l-11.3-16.2H636.6z M695.3,146.9v33.3h-4.8v-14.9h-19.1
		v14.9h-4.8v-33.3h4.8v14.3h19.1v-14.3H695.3z M706.9,146.9h4.7v25.7l19.7-25.7h4.4v33.3H731v-25.7l-19.8,25.7h-4.4V146.9z
		 M758.9,165.6h-7v14.7h-4.7v-33.3h4.7v14.5h7l10.5-14.5h5.1L762.7,163l12.5,17.2h-5.4L758.9,165.6z M781.3,146.9h4.7v25.7
		l19.7-25.7h4.4v33.3h-4.7v-25.7l-19.8,25.7h-4.4V146.9z M327.2,25.8H324v228.3h3.2V25.8z"/>
	<g>
		<g>
			<path class="st0" d="M173.5,108.3v29.3h-17.9v36.8H131v-36.8h-17.9v-29.3H173.5z"/>
		</g>
		<g>
			<path class="st0" d="M28,189h28.3l6.6,17.9l6.6-17.9h28.3l-17.9,33l18.9,33H70.5l-7.6-19.8l-7.6,19.8H27.1l18.9-33L28,189z"/>
		</g>
		<g>
			<linearGradient id="SVGID_1_" gradientUnits="userSpaceOnUse" x1="143.7394" y1="256.7711" x2="143.7394" y2="187.8626">
				<stop  offset="5.154639e-03" style="stop-color:#F2B33F"/>
				<stop  offset="1" style="stop-color:#F6E14F"/>
			</linearGradient>
			<path class="st1" d="M143.7,187.9c-21.7,0-36.8,15.1-36.8,34.4c0,19.4,15.1,34.5,36.8,34.5s36.8-15.1,36.8-34.5
				C180.6,203,165.5,187.9,143.7,187.9z M142.8,234.9l-13.4-19.6c-0.4-0.6,0-1.4,0.8-1.4l27.2,0.3c0.7,0,1.2,0.9,0.7,1.5l-13.8,19.3
				C143.9,235.4,143.2,235.4,142.8,234.9z"/>
		</g>
		<g>
			
				<linearGradient id="SVGID_00000128473503132673039050000011016156869514696115_" gradientUnits="userSpaceOnUse" x1="143.7394" y1="25.747" x2="143.7394" y2="94.6555">
				<stop  offset="5.154639e-03" style="stop-color:#3686FB"/>
				<stop  offset="1" style="stop-color:#59BFF9"/>
			</linearGradient>
			<path style="fill:url(#SVGID_00000128473503132673039050000011016156869514696115_);" d="M143.7,94.7c21.7,0,36.8-15.1,36.8-34.4
				c0-19.4-15.1-34.5-36.8-34.5s-36.8,15.1-36.8,34.5C106.9,79.6,122,94.7,143.7,94.7z M144.7,47.6l13.4,19.6c0.4,0.6,0,1.4-0.8,1.4
				l-27.2-0.3c-0.7,0-1.2-0.9-0.7-1.5l13.8-19.3C143.5,47.1,144.3,47.1,144.7,47.6z"/>
		</g>
		<g>
			
				<linearGradient id="SVGID_00000036243700610799514490000011207144641905859719_" gradientUnits="userSpaceOnUse" x1="27.2151" y1="140.5522" x2="100.8396" y2="140.5522">
				<stop  offset="5.154639e-03" style="stop-color:#67D4D8"/>
				<stop  offset="1" style="stop-color:#AFE15E"/>
			</linearGradient>
			<path style="fill:url(#SVGID_00000036243700610799514490000011207144641905859719_);" d="M64,175c21.7,0,36.8-15.1,36.8-34.5
				c0-19.3-15.1-34.4-36.8-34.4s-36.8,15.1-36.8,34.4C27.2,159.9,42.3,175,64,175z M71.1,128.1l0.3,26.5c0,0.7-0.8,1.2-1.4,0.8
				l-19.1-13.1c-0.5-0.4-0.5-1.1,0-1.5l18.8-13.5C70.2,126.9,71.1,127.3,71.1,128.1z"/>
		</g>
		<g>
			
				<linearGradient id="SVGID_00000129171391163464473130000004216995697541505171_" gradientUnits="userSpaceOnUse" x1="260.3303" y1="141.0127" x2="186.7058" y2="141.0127">
				<stop  offset="5.154639e-03" style="stop-color:#DF37BF"/>
				<stop  offset="1" style="stop-color:#ED7A48"/>
			</linearGradient>
			<path style="fill:url(#SVGID_00000129171391163464473130000004216995697541505171_);" d="M260.3,141c0-19.3-15.1-34.4-36.8-34.4
				s-36.8,15.1-36.8,34.4c0,19.4,15.1,34.5,36.8,34.5S260.3,160.4,260.3,141z M217.9,127.8l18.8,13.5c0.5,0.4,0.5,1.1,0,1.5
				l-19.1,13.1c-0.6,0.4-1.4,0-1.4-0.8l0.3-26.5C216.5,127.8,217.3,127.4,217.9,127.8z"/>
		</g>
		<g>
			<path class="st0" d="M65.6,26.7c-15.1,0-28.3,0.9-28.3,0.9v20.3h32v4.5h-32v41.3h24.5V72.5c0,0,4.7,0.5,8.5,0.5
				c16,0,25.5-9.4,25.5-23.1C95.8,36.1,86.4,26.7,65.6,26.7z"/>
		</g>
		<g>
			<path class="st0" d="M231.1,51.2c-5.7,0-10.4,0.5-10.4,0.5v-6.1h27.4V27.6h-51.9v66.1c0,0,14.2,0.9,30.2,0.9
				c20.8,0,30.2-9.4,30.2-21.7C256.6,60.7,247.2,51.2,231.1,51.2z M236.4,74.7h-16v-4.5h16V74.7z"/>
		</g>
		<path class="st0" d="M256.3,231v-42h-50.5c0,34.3-6,42-6,42h-5.1v29.1h22.3V249h24v11.1h22.3V231H256.3z M231.9,231.7h-0.2v0h-4.1
			v0h-0.2v-21.8h0.2v0h4.1v0h0.2V231.7z"/>
	</g>
</g>
</svg>
